<?xml version="1.0" encoding="UTF-8"?>
<svg width="32" height="32" viewBox="0 0 32 32" fill="none" xmlns="http://www.w3.org/2000/svg">
  <style>
    .primary { fill: oklch(0.65 0.2393 29.65); }
    .secondary { fill: #000000; }
    @media (prefers-color-scheme: dark) {
      .primary { fill: oklch(0.65 0.2393 29.65); }
      .secondary { fill: #ffffff; }
    }
  </style>
  <path class="secondary" d="M16 4C9.373 4 4 9.373 4 16C4 22.627 9.373 28 16 28C22.627 28 28 22.627 28 16C28 9.373 22.627 4 16 4ZM16 8C18.577 8 20.87 9.075 22.562 10.812L10.812 22.562C9.075 20.87 8 18.577 8 16C8 11.582 11.582 8 16 8Z"/>
  <path class="primary" d="M16 24C13.423 24 11.13 22.925 9.438 21.188L21.188 9.438C22.925 11.13 24 13.423 24 16C24 20.418 20.418 24 16 24Z"/>
</svg>